<svg width="206" height="90" viewBox="0 0 206 90" fill="none" xmlns="http://www.w3.org/2000/svg">
<rect width="206" height="90" fill="#D40000"/>
<g clip-path="url(#clip0_195_1215)">
<path d="M57.7048 53.9754V51.7366L67.6444 38.4068H57.7048V35.9622H71.0269V38.2009L61.0874 51.5307H71.0269V53.9754H57.7048Z" fill="white"/>
<path d="M72.7706 53.9754L79.6919 35.9622H82.554L89.4753 53.9754H86.4049L84.7918 49.7552H77.272L75.6588 53.9754H72.7706ZM78.2087 47.2848H83.855L81.0448 39.5133L78.2087 47.2848Z" fill="white"/>
<path d="M91.9452 53.9754V35.9622H98.9186C101.017 35.9622 102.553 36.4082 103.524 37.3003C104.513 38.1752 105.007 39.3332 105.007 40.7743C105.007 41.7007 104.756 42.4984 104.253 43.1674C103.75 43.8194 103.09 44.2911 102.275 44.5828C103.351 44.823 104.2 45.3119 104.825 46.0496C105.467 46.7701 105.788 47.7136 105.788 48.8802C105.788 49.8753 105.571 50.7588 105.137 51.5307C104.704 52.2856 104.01 52.886 103.056 53.332C102.119 53.761 100.896 53.9754 99.3868 53.9754H91.9452ZM94.8074 51.5307H99.1786C100.618 51.5307 101.599 51.2905 102.119 50.8102C102.657 50.3298 102.926 49.635 102.926 48.7259C102.926 47.8166 102.657 47.1132 102.119 46.6157C101.581 46.101 100.592 45.8437 99.1527 45.8437H94.8074V51.5307ZM94.8074 43.5792H98.6843C100.003 43.5792 100.905 43.339 101.39 42.8587C101.893 42.3783 102.145 41.7436 102.145 40.9544C102.145 40.1481 101.893 39.5219 101.39 39.0759C100.905 38.6298 100.003 38.4068 98.6843 38.4068H94.8074V43.5792Z" fill="white"/>
<path d="M109.289 53.9754V35.9622H116.263C118.362 35.9622 119.897 36.4082 120.868 37.3003C121.857 38.1752 122.351 39.3332 122.351 40.7743C122.351 41.7007 122.1 42.4984 121.597 43.1674C121.094 43.8194 120.435 44.2911 119.619 44.5828C120.695 44.823 121.545 45.3119 122.169 46.0496C122.811 46.7701 123.132 47.7136 123.132 48.8802C123.132 49.8753 122.915 50.7588 122.481 51.5307C122.048 52.2856 121.354 52.886 120.4 53.332C119.463 53.761 118.24 53.9754 116.731 53.9754H109.289ZM112.152 51.5307H116.523C117.963 51.5307 118.943 51.2905 119.463 50.8102C120.001 50.3298 120.27 49.635 120.27 48.7259C120.27 47.8166 120.001 47.1132 119.463 46.6157C118.925 46.101 117.937 45.8437 116.497 45.8437H112.152V51.5307ZM112.152 43.5792H116.029C117.347 43.5792 118.249 43.339 118.735 42.8587C119.238 42.3783 119.489 41.7436 119.489 40.9544C119.489 40.1481 119.238 39.5219 118.735 39.0759C118.249 38.6298 117.347 38.4068 116.029 38.4068H112.152V43.5792Z" fill="white"/>
<path d="M127.22 53.9754V35.9622H130.082V53.9754H127.22Z" fill="white"/>
<path d="M133.5 53.9754L139.823 44.66L133.76 35.9622H136.961L141.566 42.5241L146.224 35.9622H149.32L143.284 44.6085L149.58 53.9754H146.328L141.514 46.6929L136.649 53.9754H133.5Z" fill="white"/>
</g>
<defs>
<clipPath id="clip0_195_1215">
<rect width="98" height="26" fill="white" transform="translate(54 32)"/>
</clipPath>
</defs>
</svg>
